# Alias OBJ Model File
# Exported from SketchUp, (c) 2000-2012 Trimble Navigation Limited
# File units = meters

mtllib terrain.mtl

g Mesh1 ___1_1 Model

usemtl grass2
v 0 0 -40
vt 0 40
vn 0 1 -0
v 0 0 -0
vt 0 0
v 40 0 -0
vt 40 0
v 40 0 -40
vt 40 40
f 1/1/1 2/2/1 3/3/1 4/4/1 

vn -1 0 -0
vt -40 0
v 0 -1 -40
vt -40 -1
v 0 -1 -0
vt 0 -1
f 2/2/2 1/5/2 5/6/2 6/7/2 

vn 0 0 -1
v 40 -1 -40
f 1/2/3 4/5/3 7/6/3 5/7/3 

vn 1 0 -0
v 40 -1 -0
vt 40 -1
f 4/3/4 3/2/4 8/7/4 7/8/4 

vn 0 0 1
f 3/3/5 2/2/5 6/7/5 8/8/5 

vn 0 -1 -0
vt -40 40
f 6/2/6 5/1/6 7/9/6 8/5/6 

