# Alias OBJ Model File
# Exported from SketchUp, (c) 2000-2012 Trimble Navigation Limited
# File units = meters

mtllib kezhan_oldschool.mtl

g Mesh1 ___1_1 Model

usemtl woodeen
v 0 4 -0
vt 0 0
vn 0 1 -0
v 1 4 -0
vt 1 0
v 1 4 -7
vt 1 7
v 0 4 -7
vt 0 7
f 1/1/1 2/2/1 3/3/1 4/4/1 

v 0 0 -0
vn 0 0 1
v 1 0 -0
vt 1 4
vt 0 4
f 5/1/2 6/2/2 2/5/2 1/6/2 

vt -1 0
vn 0 -1 -0
v 0 0 -7
v 1 0 -7
vt -1 7
f 6/7/3 5/1/3 7/4/3 8/8/3 

vt -7 0
vn -1 0 -0
vt -7 4
f 7/9/4 5/1/4 1/6/4 4/10/4 

vn 0 0 -1
vt -1 4
f 8/7/5 7/1/5 4/6/5 3/11/5 

vn 1 0 -0
vt 7 0
vt 7 4
f 6/1/6 8/12/6 3/13/6 2/6/6 

g Mesh2 ___2_1 Model

usemtl door
v 4 0 -0
vt -4 0
v 1 0 -0
v 1 0 -1
vt -1 0.25
v 4 0 -1
vt -4 0.25
f 9/14/3 10/7/3 11/15/3 12/16/3 

vt 4 0
v 4 4 -0
vt 4 1
v 1 4 -0
vt 1 1
f 10/2/2 9/17/2 13/18/2 14/19/2 

v 4 4 -1
vt 0 1
f 9/1/6 12/2/6 15/19/6 13/20/6 

v 1 4 -1
vt -1 1
vt -4 1
f 12/14/5 11/7/5 16/21/5 15/22/5 

f 11/7/4 10/1/4 14/20/4 16/21/4 

vt 4 0.25
vt 1 0.25
f 14/2/1 13/17/1 15/23/1 16/24/1 

g Mesh3 ___3_1 Model

usemtl door2
v 5 4 -0
vt 5 0
v 5 4 -1
vt 5 0.25
f 17/25/1 18/26/1 15/23/1 13/17/1 

v 5 0 -0
v 5 0 -1
f 19/1/6 20/2/6 18/19/6 17/20/6 

vt -5 0.25
vt -5 0
f 20/27/3 19/28/3 9/14/3 12/16/3 

vt 5 1
f 9/17/2 19/25/2 17/29/2 13/18/2 

f 12/7/4 9/1/4 13/20/4 15/21/4 

vt -5 1
f 20/28/5 12/14/5 15/22/5 18/30/5 

g Mesh4 ___2_2 Model

usemtl door
v 11 0 -0
v 8 0 -0
v 8 0 -1
v 11 0 -1
f 21/14/3 22/7/3 23/15/3 24/16/3 

v 11 4 -0
v 8 4 -0
f 22/2/2 21/17/2 25/18/2 26/19/2 

v 11 4 -1
f 21/1/6 24/2/6 27/19/6 25/20/6 

v 8 4 -1
f 24/14/5 23/7/5 28/21/5 27/22/5 

f 23/7/4 22/1/4 26/20/4 28/21/4 

f 26/2/1 25/17/1 27/23/1 28/24/1 

g Mesh5 ___1_2 Model

usemtl woodeen
v 12 4 -0
v 12 4 -7
v 11 4 -7
f 25/1/1 29/2/1 30/3/1 31/4/1 

v 12 0 -0
f 21/1/2 32/2/2 29/5/2 25/6/2 

v 11 0 -7
v 12 0 -7
f 32/7/3 21/1/3 33/4/3 34/8/3 

f 33/9/4 21/1/4 25/6/4 31/10/4 

f 34/7/5 33/1/5 31/6/5 30/11/5 

f 32/1/6 34/12/6 30/13/6 29/6/6 

g Mesh6 ___3_2 Model

usemtl door2
v 8 4 -0
v 8 4 -1
v 7 4 -1
v 7 4 -0
f 35/25/1 36/26/1 37/23/1 38/17/1 

v 8 0 -0
v 8 0 -1
f 39/1/6 40/2/6 36/19/6 35/20/6 

v 7 0 -0
v 7 0 -1
f 40/27/3 39/28/3 41/14/3 42/16/3 

f 41/17/2 39/25/2 35/29/2 38/18/2 

f 42/7/4 41/1/4 38/20/4 37/21/4 

f 40/28/5 42/14/5 37/22/5 36/30/5 

g Mesh7 ___4_1 Model

usemtl woodeen
v 2.88765e-15 0 -7
vt -2.88765e-15 7
v 2.88765e-15 0 -8
vt -2.88765e-15 8
v 12 0 -8
vt -12 8
vt -12 7
f 43/31/3 44/32/3 45/33/3 34/34/3 

vt -8 0
v 2.88765e-15 4 -7
v 2.88765e-15 4 -8
vt -8 4
f 44/35/4 43/9/4 46/10/4 47/36/4 

vt 2.88765e-15 0
vt 12 0
vt 12 4
vt 2.88765e-15 4
f 43/37/2 34/38/2 30/39/2 46/40/2 

vt 8 0
v 12 4 -8
vt 8 4
f 34/12/6 45/41/6 48/42/6 30/13/6 

vt -12 0
vt -2.88765e-15 0
vt -2.88765e-15 4
vt -12 4
f 45/43/5 44/44/5 47/45/5 48/46/5 

vt 2.88765e-15 8
vt 2.88765e-15 7
vt 12 7
vt 12 8
f 47/47/1 46/48/1 30/49/1 48/50/1 

g Mesh8 ___5_1 Model

v 12 5 -8
v 2.88765e-15 5 -8
v 2.88765e-15 5 -0
v 12 5 -0
f 49/50/1 50/47/1 51/37/1 52/38/1 

vt -2.88765e-15 5
vt -12 5
f 48/46/5 47/45/5 50/51/5 49/52/5 

v 2.88765e-15 4 -0
f 47/32/3 48/33/3 29/43/3 53/44/3 

vt 8 5
vt 0 5
f 29/6/6 48/42/6 49/53/6 52/54/6 

vt 12 5
vt 2.88765e-15 5
f 53/40/2 29/39/2 52/55/2 51/56/2 

vt -8 5
f 47/36/4 53/6/4 51/54/4 50/57/4 

g Mesh9 ___6_1 Model

v 12 7 -4
vt 4 2
f 52/1/6 49/41/6 54/58/6

v -2.16573e-15 5 -0
v -2.16573e-15 5 -8
vt 0 8
f 49/33/3 52/43/3 55/1/3 56/59/3 

vn 0 0.894427 0.447214
vt 12 4.47214
v -2.16573e-15 7 -4
vt 0 4.47214
f 52/38/7 54/60/7 57/61/7 55/1/7 

vt -12 -2.68328
vn 0 0.894427 -0.447214
vt -12 -7.15542
vt 0 -7.15542
vt 0 -2.68328
f 54/62/8 49/63/8 56/64/8 57/65/8 

vt -4 2
f 56/35/4 55/1/4 57/66/4

g Mesh10 ___7_1 Model

usemtl wall2
v -1.44382e-15 7 -4
vt -4 7
v -1.44382e-15 4.76393 0.472136
vt 0.472136 4.76393
v -1.44382e-15 4.98754 0.583939
vt 0.583939 4.98754
v -1.44382e-15 7.22361 -3.8882
vt -3.8882 7.22361
f 58/67/4 59/68/4 60/69/4 61/70/4 

v 12 4.76393 0.472136
vt -12 1.7082
vn 0 -0.894427 -0.447214
vt 1.44382e-15 1.7082
vt 1.44382e-15 6.7082
v 12 7 -4
vt -12 6.7082
f 62/71/9 59/72/9 58/73/9 63/74/9 

vt -1.44382e-15 4.47214
vn 0 -0.447214 0.894427
v 12 4.98754 0.583939
vt 12 4.72214
vt -1.44382e-15 4.72214
f 59/75/10 62/60/10 64/76/10 60/77/10 

vt -0.472136 4.76393
vt 4 7
v 12 7.22361 -3.8882
vt 3.8882 7.22361
vt -0.583939 4.98754
f 62/78/6 63/79/6 65/80/6 64/81/6 

vt -12 4.47214
vn 0 0.447214 -0.894427
vt 1.44382e-15 4.47214
vt 1.44382e-15 4.72214
vt -12 4.72214
f 63/82/11 58/83/11 61/84/11 65/85/11 

vt -1.44382e-15 1.7082
vt 12 1.7082
vt 12 6.7082
vt -1.44382e-15 6.7082
f 60/86/7 64/87/7 65/88/7 61/89/7 

g Mesh11 ___7_2 Model

v 12 7 -4
vn 1 0 1.11022e-16
v 12 4.76393 -8.47214
v 12 4.98754 -8.58394
v 12 7.22361 -4.1118
f 66/67/12 67/68/12 68/69/12 69/70/12 

v 0 4.76393 -8.47214
vn -4.96507e-17 -0.894427 0.447214
v 0 7 -4
f 70/71/13 67/72/13 66/73/13 71/74/13 

vn 9.93014e-17 -0.447214 -0.894427
v 0 4.98754 -8.58394
f 67/75/14 70/60/14 72/76/14 68/77/14 

vn -1 0 -1.11022e-16
v 0 7.22361 -4.1118
f 70/78/15 71/79/15 73/80/15 72/81/15 

vn -9.93014e-17 0.447214 0.894427
f 71/82/16 66/83/16 69/84/16 73/85/16 

vn 4.96507e-17 0.894427 -0.447214
f 68/86/17 72/87/17 73/88/17 69/89/17 

g Mesh12 ___8_1 Model

usemtl woodeen
vt -0.111803 0
v -2.16573e-15 7.22361 -3.8882
vt 0 0.223607
v -2.16573e-15 7.22361 -4.1118
vt -0.223607 0.223607
f 57/90/4 74/91/4 75/92/4

vt 12 -0.05
v 12 7.22361 -3.8882
vt 12 0.2
vt 0 0.2
vt 0 -0.05
f 54/93/10 76/94/10 74/95/10 57/96/10 

vt 0.111803 0
vt 0.223607 0.223607
f 76/91/6 54/97/6 69/98/6

vt -12 0.3
vn 0 -0.447214 -0.894427
vt -12 0.05
vt 0 0.05
vt 0 0.3
f 69/99/18 54/100/18 57/101/18 75/102/18 

vt 12 0.223607
f 76/38/1 69/103/1 75/91/1 74/1/1 

g Mesh13 ___9_1 Model

v 7 4.81122 0.250301
vt 2 0
vn 0 0.965926 0.258819
v 7 4.87593 0.00881905
vt 2 0.25
v 5 4.87593 0.00881905
vt 0 0.25
v 5 4.81122 0.250301
f 77/104/19 78/105/19 79/106/19 80/1/19 

v 7 3.8453 -0.00851854
v 7 3.91 -0.25
vt 0.25 0
vt 0.25 1
f 81/1/6 82/107/6 78/108/6 77/20/6 

vt -2 0.25
vn 0 -0.965926 -0.258819
vt -2 0
v 5 3.8453 -0.00851854
v 5 3.91 -0.25
f 82/109/20 81/110/20 83/1/20 84/106/20 

usemtl brand
vn 0 -0.258819 0.965926
f 83/1/21 81/2/21 77/19/21 80/20/21 

usemtl woodeen
vt -0.25 0
vt -0.25 1
f 84/111/4 83/1/4 80/20/4 79/112/4 

vn 0 0.258819 -0.965926
vt -2 1
f 82/110/22 84/1/22 79/20/22 78/113/22 

g Mesh14 Model

usemtl brick
v 0 0 -8
f 85/59/1 5/1/1 32/38/1 45/50/1 

v 0 -1 -8
vt -8 -1
v 0 -1 -0
vt 0 -1
f 5/1/4 85/35/4 86/114/4 87/115/4 

v 12 -1 -8
vt -12 -1
f 85/1/5 45/43/5 88/116/5 86/115/5 

v 12 -1 -0
vt 8 -1
f 45/41/6 32/1/6 89/115/6 88/117/6 

vt 12 -1
f 32/38/2 5/1/2 87/115/2 89/118/2 

f 87/1/3 86/59/3 88/33/3 89/43/3 

